<?xml version="1.0" standalone="no"?>
<!DOCTYPE svg PUBLIC "-//W3C//DTD SVG 20010904//EN"
 "http://www.w3.org/TR/2001/REC-SVG-20010904/DTD/svg10.dtd">
<svg version="1.0" xmlns="http://www.w3.org/2000/svg"
 width="249.000000pt" height="249.000000pt" viewBox="0 0 249.000000 249.000000"
 preserveAspectRatio="xMidYMid meet">
<metadata>
Created by potrace 1.14, written by Peter Selinger 2001-2017
</metadata>
<g transform="translate(0.000000,249.000000) scale(0.100000,-0.100000)"
fill="#000000" stroke="none">
<path d="M1120 2438 c-176 -26 -381 -108 -505 -202 -118 -90 -233 -217 -302
-334 -50 -85 -99 -196 -109 -251 -3 -13 -9 -31 -13 -40 -5 -9 -11 -32 -14 -51
-4 -19 -9 -51 -13 -70 -18 -90 -8 -357 17 -442 14 -50 11 -65 -14 -72 -29 -7
-47 -44 -42 -84 5 -41 86 -199 148 -290 103 -150 312 -332 462 -402 77 -35
138 -61 155 -66 190 -50 235 -57 370 -58 246 -1 437 56 644 192 74 49 203 171
252 237 16 22 31 42 34 45 17 15 94 149 130 226 53 114 59 146 31 171 -12 10
-27 18 -34 18 -7 0 -11 7 -10 15 2 20 13 72 18 90 15 52 20 113 19 255 0 131
-4 176 -23 249 -64 252 -179 442 -376 616 -127 113 -314 201 -507 240 -72 14
-245 19 -318 8z"/>
</g>
</svg>
